<svg width="388" height="193" viewBox="0 0 388 193" fill="none" xmlns="http://www.w3.org/2000/svg">
<g filter="url(#filter0_b_304_6473)">
<rect width="388" height="193" rx="10" fill="white" fill-opacity="0.05"/>
</g>
<path opacity="0.1" d="M65.3583 0H300.856V174C300.856 178.418 297.274 182 292.856 182H73.3583C68.94 182 65.3583 178.418 65.3583 174V0Z" fill="#D9D9D9"/>
<rect x="226.16" y="149" width="68.4706" height="26" rx="7" fill="#3076F7"/>
<path d="M253.972 164.556H249.772L248.944 166.5H247.336L251.116 158.1H252.652L256.444 166.5H254.812L253.972 164.556ZM253.456 163.332L251.872 159.66L250.3 163.332H253.456ZM263.585 157.596V166.5H262.145V165.672C261.897 165.976 261.589 166.204 261.221 166.356C260.861 166.508 260.461 166.584 260.021 166.584C259.405 166.584 258.849 166.448 258.353 166.176C257.865 165.904 257.481 165.52 257.201 165.024C256.921 164.52 256.781 163.944 256.781 163.296C256.781 162.648 256.921 162.076 257.201 161.58C257.481 161.084 257.865 160.7 258.353 160.428C258.849 160.156 259.405 160.02 260.021 160.02C260.445 160.02 260.833 160.092 261.185 160.236C261.537 160.38 261.837 160.596 262.085 160.884V157.596H263.585ZM260.201 165.3C260.561 165.3 260.885 165.22 261.173 165.06C261.461 164.892 261.689 164.656 261.857 164.352C262.025 164.048 262.109 163.696 262.109 163.296C262.109 162.896 262.025 162.544 261.857 162.24C261.689 161.936 261.461 161.704 261.173 161.544C260.885 161.376 260.561 161.292 260.201 161.292C259.841 161.292 259.517 161.376 259.229 161.544C258.941 161.704 258.713 161.936 258.545 162.24C258.377 162.544 258.293 162.896 258.293 163.296C258.293 163.696 258.377 164.048 258.545 164.352C258.713 164.656 258.941 164.892 259.229 165.06C259.517 165.22 259.841 165.3 260.201 165.3ZM271.824 157.596V166.5H270.384V165.672C270.136 165.976 269.828 166.204 269.46 166.356C269.1 166.508 268.7 166.584 268.26 166.584C267.644 166.584 267.088 166.448 266.592 166.176C266.104 165.904 265.72 165.52 265.44 165.024C265.16 164.52 265.02 163.944 265.02 163.296C265.02 162.648 265.16 162.076 265.44 161.58C265.72 161.084 266.104 160.7 266.592 160.428C267.088 160.156 267.644 160.02 268.26 160.02C268.684 160.02 269.072 160.092 269.424 160.236C269.776 160.38 270.076 160.596 270.324 160.884V157.596H271.824ZM268.44 165.3C268.8 165.3 269.124 165.22 269.412 165.06C269.7 164.892 269.928 164.656 270.096 164.352C270.264 164.048 270.348 163.696 270.348 163.296C270.348 162.896 270.264 162.544 270.096 162.24C269.928 161.936 269.7 161.704 269.412 161.544C269.124 161.376 268.8 161.292 268.44 161.292C268.08 161.292 267.756 161.376 267.468 161.544C267.18 161.704 266.952 161.936 266.784 162.24C266.616 162.544 266.532 162.896 266.532 163.296C266.532 163.696 266.616 164.048 266.784 164.352C266.952 164.656 267.18 164.892 267.468 165.06C267.756 165.22 268.08 165.3 268.44 165.3Z" fill="white"/>
<rect opacity="0.1" x="127.604" y="30" width="150.428" height="11" rx="5.5" fill="#D9D9D9"/>
<rect opacity="0.1" x="127.604" y="16" width="90.2567" height="11" rx="5.5" fill="#D9D9D9"/>
<ellipse opacity="0.2" cx="97" cy="28.5" rx="19.1925" ry="18.5" fill="#D9D9D9"/>
<rect opacity="0.1" x="127.604" y="74" width="150.428" height="11" rx="5.5" fill="#D9D9D9"/>
<rect opacity="0.1" x="127.604" y="60" width="90.2567" height="11" rx="5.5" fill="#D9D9D9"/>
<ellipse opacity="0.2" cx="97" cy="72.5" rx="19.1925" ry="18.5" fill="#D9D9D9"/>
<rect opacity="0.1" x="127.604" y="118" width="150.428" height="11" rx="5.5" fill="#D9D9D9"/>
<rect opacity="0.1" x="127.604" y="104" width="90.2567" height="11" rx="5.5" fill="#D9D9D9"/>
<ellipse opacity="0.2" cx="97" cy="116.5" rx="19.1925" ry="18.5" fill="#D9D9D9"/>
<defs>
<filter id="filter0_b_304_6473" x="-94" y="-94" width="576" height="381" filterUnits="userSpaceOnUse" color-interpolation-filters="sRGB">
<feFlood flood-opacity="0" result="BackgroundImageFix"/>
<feGaussianBlur in="BackgroundImageFix" stdDeviation="47"/>
<feComposite in2="SourceAlpha" operator="in" result="effect1_backgroundBlur_304_6473"/>
<feBlend mode="normal" in="SourceGraphic" in2="effect1_backgroundBlur_304_6473" result="shape"/>
</filter>
</defs>
</svg>
