<svg width="374" height="193" viewBox="0 0 374 193" fill="none" xmlns="http://www.w3.org/2000/svg">
<g filter="url(#filter0_b_304_6562)">
<rect width="374" height="193" rx="10" fill="white" fill-opacity="0.05"/>
</g>
<rect x="12" y="10" width="163" height="172" rx="7" fill="#303030"/>
<rect x="211" y="41" width="151" height="112" rx="7" fill="#303030"/>
<rect opacity="0.1" x="282" y="76" width="47" height="16" rx="8" fill="#D9D9D9"/>
<rect opacity="0.1" x="223" y="127" width="62" height="16" rx="8" fill="#D9D9D9"/>
<rect opacity="0.1" x="288" y="127" width="62" height="16" rx="8" fill="#D9D9D9"/>
<rect opacity="0.2" x="282" y="56" width="64" height="16" rx="8" fill="#D9D9D9"/>
<circle cx="246.5" cy="73.5" r="22.5" fill="#3076F7"/>
<path d="M56.852 88.14C55.8627 88.14 54.9667 87.9253 54.164 87.496C53.3707 87.0573 52.7453 86.4553 52.288 85.69C51.84 84.9247 51.616 84.0613 51.616 83.1C51.616 82.1387 51.8447 81.2753 52.302 80.51C52.7593 79.7447 53.3847 79.1473 54.178 78.718C54.9807 78.2793 55.8767 78.06 56.866 78.06C57.6687 78.06 58.4013 78.2 59.064 78.48C59.7267 78.76 60.2867 79.166 60.744 79.698L59.568 80.804C58.8587 80.0387 57.986 79.656 56.95 79.656C56.278 79.656 55.676 79.8053 55.144 80.104C54.612 80.3933 54.1967 80.7993 53.898 81.322C53.5993 81.8447 53.45 82.4373 53.45 83.1C53.45 83.7627 53.5993 84.3553 53.898 84.878C54.1967 85.4007 54.612 85.8113 55.144 86.11C55.676 86.3993 56.278 86.544 56.95 86.544C57.986 86.544 58.8587 86.1567 59.568 85.382L60.744 86.502C60.2867 87.034 59.722 87.44 59.05 87.72C58.3873 88 57.6547 88.14 56.852 88.14ZM63.9859 81.616C64.4899 80.832 65.3765 80.44 66.6459 80.44V82.106C66.4965 82.078 66.3612 82.064 66.2399 82.064C65.5585 82.064 65.0265 82.2647 64.6439 82.666C64.2612 83.058 64.0699 83.6273 64.0699 84.374V88H62.3199V80.524H63.9859V81.616ZM75.0901 84.304C75.0901 84.4253 75.0807 84.598 75.0621 84.822H69.1961C69.2987 85.3727 69.5647 85.8113 69.9941 86.138C70.4327 86.4553 70.9741 86.614 71.6181 86.614C72.4394 86.614 73.1161 86.3433 73.6481 85.802L74.5861 86.88C74.2501 87.2813 73.8254 87.5847 73.3121 87.79C72.7987 87.9953 72.2201 88.098 71.5761 88.098C70.7547 88.098 70.0314 87.9347 69.4061 87.608C68.7807 87.2813 68.2954 86.8287 67.9501 86.25C67.6141 85.662 67.4461 84.9993 67.4461 84.262C67.4461 83.534 67.6094 82.8807 67.9361 82.302C68.2721 81.714 68.7341 81.2567 69.3221 80.93C69.9101 80.6033 70.5727 80.44 71.3101 80.44C72.0381 80.44 72.6867 80.6033 73.2561 80.93C73.8347 81.2473 74.2827 81.7 74.6001 82.288C74.9267 82.8667 75.0901 83.5387 75.0901 84.304ZM71.3101 81.84C70.7501 81.84 70.2741 82.008 69.8821 82.344C69.4994 82.6707 69.2661 83.1093 69.1821 83.66H73.4241C73.3494 83.1187 73.1207 82.68 72.7381 82.344C72.3554 82.008 71.8794 81.84 71.3101 81.84ZM79.422 80.44C80.5233 80.44 81.3633 80.706 81.942 81.238C82.53 81.7607 82.824 82.554 82.824 83.618V88H81.172V87.09C80.9573 87.4167 80.6493 87.6687 80.248 87.846C79.856 88.014 79.38 88.098 78.82 88.098C78.26 88.098 77.77 88.0047 77.35 87.818C76.93 87.622 76.6033 87.356 76.37 87.02C76.146 86.6747 76.034 86.2873 76.034 85.858C76.034 85.186 76.2813 84.6493 76.776 84.248C77.28 83.8373 78.0686 83.632 79.142 83.632H81.074V83.52C81.074 82.9973 80.9153 82.596 80.598 82.316C80.29 82.036 79.828 81.896 79.212 81.896C78.792 81.896 78.3766 81.9613 77.966 82.092C77.5646 82.2227 77.224 82.4047 76.944 82.638L76.258 81.364C76.65 81.0653 77.1213 80.8367 77.672 80.678C78.2226 80.5193 78.806 80.44 79.422 80.44ZM79.184 86.824C79.6226 86.824 80.01 86.726 80.346 86.53C80.6913 86.3247 80.934 86.0353 81.074 85.662V84.794H79.268C78.26 84.794 77.756 85.1253 77.756 85.788C77.756 86.1053 77.882 86.3573 78.134 86.544C78.386 86.7307 78.736 86.824 79.184 86.824ZM89.5639 87.594C89.3585 87.762 89.1065 87.888 88.8079 87.972C88.5185 88.056 88.2105 88.098 87.8839 88.098C87.0625 88.098 86.4279 87.8833 85.9799 87.454C85.5319 87.0247 85.3079 86.3993 85.3079 85.578V81.98H84.0759V80.58H85.3079V78.872H87.0579V80.58H89.0599V81.98H87.0579V85.536C87.0579 85.9 87.1465 86.18 87.3239 86.376C87.5012 86.5627 87.7579 86.656 88.0939 86.656C88.4859 86.656 88.8125 86.5533 89.0739 86.348L89.5639 87.594ZM97.7854 84.304C97.7854 84.4253 97.776 84.598 97.7574 84.822H91.8914C91.994 85.3727 92.26 85.8113 92.6894 86.138C93.128 86.4553 93.6694 86.614 94.3134 86.614C95.1347 86.614 95.8114 86.3433 96.3434 85.802L97.2814 86.88C96.9454 87.2813 96.5207 87.5847 96.0074 87.79C95.494 87.9953 94.9154 88.098 94.2714 88.098C93.45 88.098 92.7267 87.9347 92.1014 87.608C91.476 87.2813 90.9907 86.8287 90.6454 86.25C90.3094 85.662 90.1414 84.9993 90.1414 84.262C90.1414 83.534 90.3047 82.8807 90.6314 82.302C90.9674 81.714 91.4294 81.2567 92.0174 80.93C92.6054 80.6033 93.268 80.44 94.0054 80.44C94.7334 80.44 95.382 80.6033 95.9514 80.93C96.53 81.2473 96.978 81.7 97.2954 82.288C97.622 82.8667 97.7854 83.5387 97.7854 84.304ZM94.0054 81.84C93.4454 81.84 92.9694 82.008 92.5774 82.344C92.1947 82.6707 91.9614 83.1093 91.8774 83.66H96.1194C96.0447 83.1187 95.816 82.68 95.4334 82.344C95.0507 82.008 94.5747 81.84 94.0054 81.84ZM110.756 80.524V86.866C110.756 89.498 109.412 90.814 106.724 90.814C106.005 90.814 105.324 90.7207 104.68 90.534C104.036 90.3567 103.504 90.0953 103.084 89.75L103.868 88.434C104.194 88.7047 104.605 88.9193 105.1 89.078C105.604 89.246 106.112 89.33 106.626 89.33C107.447 89.33 108.049 89.1433 108.432 88.77C108.814 88.3967 109.006 87.8273 109.006 87.062V86.67C108.707 86.9967 108.343 87.244 107.914 87.412C107.484 87.58 107.013 87.664 106.5 87.664C105.79 87.664 105.146 87.5147 104.568 87.216C103.998 86.908 103.546 86.4787 103.21 85.928C102.883 85.3773 102.72 84.7473 102.72 84.038C102.72 83.3287 102.883 82.7033 103.21 82.162C103.546 81.6113 103.998 81.1867 104.568 80.888C105.146 80.5893 105.79 80.44 106.5 80.44C107.041 80.44 107.531 80.5287 107.97 80.706C108.418 80.8833 108.791 81.154 109.09 81.518V80.524H110.756ZM106.766 86.18C107.428 86.18 107.97 85.984 108.39 85.592C108.819 85.1907 109.034 84.6727 109.034 84.038C109.034 83.4127 108.819 82.904 108.39 82.512C107.97 82.12 107.428 81.924 106.766 81.924C106.094 81.924 105.543 82.12 105.114 82.512C104.694 82.904 104.484 83.4127 104.484 84.038C104.484 84.6727 104.694 85.1907 105.114 85.592C105.543 85.984 106.094 86.18 106.766 86.18ZM114.722 81.616C115.226 80.832 116.113 80.44 117.382 80.44V82.106C117.233 82.078 117.098 82.064 116.976 82.064C116.295 82.064 115.763 82.2647 115.38 82.666C114.998 83.058 114.806 83.6273 114.806 84.374V88H113.056V80.524H114.722V81.616ZM122.158 88.098C121.402 88.098 120.721 87.9347 120.114 87.608C119.508 87.2813 119.032 86.8287 118.686 86.25C118.35 85.662 118.182 84.9993 118.182 84.262C118.182 83.5247 118.35 82.8667 118.686 82.288C119.032 81.7093 119.508 81.2567 120.114 80.93C120.721 80.6033 121.402 80.44 122.158 80.44C122.924 80.44 123.61 80.6033 124.216 80.93C124.823 81.2567 125.294 81.7093 125.63 82.288C125.976 82.8667 126.148 83.5247 126.148 84.262C126.148 84.9993 125.976 85.662 125.63 86.25C125.294 86.8287 124.823 87.2813 124.216 87.608C123.61 87.9347 122.924 88.098 122.158 88.098ZM122.158 86.6C122.802 86.6 123.334 86.3853 123.754 85.956C124.174 85.5267 124.384 84.962 124.384 84.262C124.384 83.562 124.174 82.9973 123.754 82.568C123.334 82.1387 122.802 81.924 122.158 81.924C121.514 81.924 120.982 82.1387 120.562 82.568C120.152 82.9973 119.946 83.562 119.946 84.262C119.946 84.962 120.152 85.5267 120.562 85.956C120.982 86.3853 121.514 86.6 122.158 86.6ZM135.06 80.524V88H133.394V87.048C133.114 87.384 132.764 87.6453 132.344 87.832C131.924 88.0093 131.471 88.098 130.986 88.098C129.987 88.098 129.198 87.8227 128.62 87.272C128.05 86.712 127.766 85.886 127.766 84.794V80.524H129.516V84.556C129.516 85.228 129.665 85.732 129.964 86.068C130.272 86.3947 130.706 86.558 131.266 86.558C131.891 86.558 132.386 86.3667 132.75 85.984C133.123 85.592 133.31 85.032 133.31 84.304V80.524H135.06ZM141.495 80.44C142.223 80.44 142.872 80.5987 143.441 80.916C144.02 81.2333 144.472 81.6813 144.799 82.26C145.126 82.8387 145.289 83.506 145.289 84.262C145.289 85.018 145.126 85.69 144.799 86.278C144.472 86.8567 144.02 87.3047 143.441 87.622C142.872 87.9393 142.223 88.098 141.495 88.098C140.487 88.098 139.689 87.762 139.101 87.09V90.716H137.351V80.524H139.017V81.504C139.306 81.1493 139.661 80.8833 140.081 80.706C140.51 80.5287 140.982 80.44 141.495 80.44ZM141.299 86.6C141.943 86.6 142.47 86.3853 142.881 85.956C143.301 85.5267 143.511 84.962 143.511 84.262C143.511 83.562 143.301 82.9973 142.881 82.568C142.47 82.1387 141.943 81.924 141.299 81.924C140.879 81.924 140.501 82.022 140.165 82.218C139.829 82.4047 139.563 82.6753 139.367 83.03C139.171 83.3847 139.073 83.7953 139.073 84.262C139.073 84.7287 139.171 85.1393 139.367 85.494C139.563 85.8487 139.829 86.124 140.165 86.32C140.501 86.5067 140.879 86.6 141.299 86.6Z" fill="white"/>
<rect opacity="0.1" x="28" y="46" width="86" height="20" rx="10" fill="#D9D9D9"/>
<rect opacity="0.2" x="28" y="20" width="116" height="20" rx="10" fill="#D9D9D9"/>
<rect opacity="0.1" x="28" y="153" width="130" height="20" rx="10" fill="#D9D9D9"/>
<rect opacity="0.1" x="28" y="127" width="86" height="20" rx="10" fill="#D9D9D9"/>
<rect opacity="0.2" x="28" y="102" width="116" height="20" rx="10" fill="#D9D9D9"/>
<mask id="mask0_304_6562" style="mask-type:alpha" maskUnits="userSpaceOnUse" x="183" y="87" width="20" height="20">
<rect x="183" y="87" width="20" height="20" fill="#D9D9D9"/>
</mask>
<g mask="url(#mask0_304_6562)">
<path d="M194.667 102L193.5 100.792L196.458 97.8333H186.333V96.1667H196.458L193.5 93.2083L194.667 92L199.667 97L194.667 102Z" fill="#4E4E4E" fill-opacity="0.8"/>
</g>
<defs>
<filter id="filter0_b_304_6562" x="-94" y="-94" width="562" height="381" filterUnits="userSpaceOnUse" color-interpolation-filters="sRGB">
<feFlood flood-opacity="0" result="BackgroundImageFix"/>
<feGaussianBlur in="BackgroundImageFix" stdDeviation="47"/>
<feComposite in2="SourceAlpha" operator="in" result="effect1_backgroundBlur_304_6562"/>
<feBlend mode="normal" in="SourceGraphic" in2="effect1_backgroundBlur_304_6562" result="shape"/>
</filter>
</defs>
</svg>
