<svg width="388" height="193" viewBox="0 0 388 193" fill="none" xmlns="http://www.w3.org/2000/svg">
<g filter="url(#filter0_b_304_6432)">
<rect width="388" height="193" rx="10" fill="white" fill-opacity="0.05"/>
</g>
<rect x="12.4492" y="137" width="366.214" height="45" rx="7" fill="#303030"/>
<mask id="mask0_304_6432" style="mask-type:alpha" maskUnits="userSpaceOnUse" x="344" y="148" width="26" height="25">
<rect x="344.428" y="148" width="24.8984" height="24" fill="#D9D9D9"/>
</mask>
<g mask="url(#mask0_304_6432)">
<path d="M347.54 168V162L355.84 160L347.54 158V152L367.251 160L347.54 168Z" fill="white"/>
</g>
<path d="M29.7304 152.528H31.1224L25.8424 167.6H24.4504L29.7304 152.528ZM33.3333 166.096C32.6399 166.096 31.9733 166.005 31.3333 165.824C30.6933 165.632 30.1919 165.392 29.8293 165.104L30.4693 163.888C30.8426 164.155 31.2959 164.368 31.8293 164.528C32.3626 164.688 32.9013 164.768 33.4453 164.768C34.7893 164.768 35.4613 164.384 35.4613 163.616C35.4613 163.36 35.3706 163.157 35.1893 163.008C35.0079 162.859 34.7786 162.752 34.5013 162.688C34.2346 162.613 33.8506 162.533 33.3493 162.448C32.6666 162.341 32.1066 162.219 31.6693 162.08C31.2426 161.941 30.8746 161.707 30.5653 161.376C30.2559 161.045 30.1013 160.581 30.1013 159.984C30.1013 159.216 30.4213 158.603 31.0613 158.144C31.7013 157.675 32.5599 157.44 33.6373 157.44C34.2026 157.44 34.7679 157.509 35.3333 157.648C35.8986 157.787 36.3626 157.973 36.7253 158.208L36.0693 159.424C35.3759 158.976 34.5599 158.752 33.6213 158.752C32.9706 158.752 32.4746 158.859 32.1333 159.072C31.7919 159.285 31.6213 159.568 31.6213 159.92C31.6213 160.197 31.7173 160.416 31.9093 160.576C32.1013 160.736 32.3359 160.853 32.6133 160.928C32.9013 161.003 33.3013 161.088 33.8133 161.184C34.4959 161.301 35.0453 161.429 35.4613 161.568C35.8879 161.696 36.2506 161.92 36.5493 162.24C36.8479 162.56 36.9973 163.008 36.9973 163.584C36.9973 164.352 36.6666 164.965 36.0053 165.424C35.3546 165.872 34.4639 166.096 33.3333 166.096ZM43.6849 165.504C43.4609 165.696 43.1835 165.845 42.8529 165.952C42.5222 166.048 42.1809 166.096 41.8289 166.096C40.9755 166.096 40.3142 165.867 39.8449 165.408C39.3755 164.949 39.1409 164.293 39.1409 163.44V158.784H37.7009V157.52H39.1409V155.664H40.6769V157.52H43.1089V158.784H40.6769V163.376C40.6769 163.835 40.7889 164.187 41.0129 164.432C41.2475 164.677 41.5782 164.8 42.0049 164.8C42.4742 164.8 42.8742 164.667 43.2049 164.4L43.6849 165.504ZM48.6299 157.44C49.8032 157.44 50.6992 157.728 51.3179 158.304C51.9472 158.88 52.2619 159.739 52.2619 160.88V166H50.8059V164.88C50.5499 165.275 50.1819 165.579 49.7019 165.792C49.2325 165.995 48.6725 166.096 48.0219 166.096C47.0725 166.096 46.3099 165.867 45.7339 165.408C45.1685 164.949 44.8859 164.347 44.8859 163.6C44.8859 162.853 45.1579 162.256 45.7019 161.808C46.2459 161.349 47.1099 161.12 48.2939 161.12H50.7259V160.816C50.7259 160.155 50.5339 159.648 50.1499 159.296C49.7659 158.944 49.2005 158.768 48.4539 158.768C47.9525 158.768 47.4619 158.853 46.9819 159.024C46.5019 159.184 46.0965 159.403 45.7659 159.68L45.1259 158.528C45.5632 158.176 46.0859 157.909 46.6939 157.728C47.3019 157.536 47.9472 157.44 48.6299 157.44ZM48.2779 164.912C48.8645 164.912 49.3712 164.784 49.7979 164.528C50.2245 164.261 50.5339 163.888 50.7259 163.408V162.224H48.3579C47.0565 162.224 46.4059 162.661 46.4059 163.536C46.4059 163.963 46.5712 164.299 46.9019 164.544C47.2325 164.789 47.6912 164.912 48.2779 164.912ZM56.5764 158.944C56.843 158.453 57.2377 158.08 57.7604 157.824C58.283 157.568 58.9177 157.44 59.6644 157.44V158.928C59.579 158.917 59.4617 158.912 59.3124 158.912C58.4804 158.912 57.8244 159.163 57.3444 159.664C56.875 160.155 56.6404 160.859 56.6404 161.776V166H55.1044V157.52H56.5764V158.944ZM66.6693 165.504C66.4453 165.696 66.1679 165.845 65.8373 165.952C65.5066 166.048 65.1653 166.096 64.8133 166.096C63.9599 166.096 63.2986 165.867 62.8293 165.408C62.3599 164.949 62.1253 164.293 62.1253 163.44V158.784H60.6853V157.52H62.1253V155.664H63.6613V157.52H66.0933V158.784H63.6613V163.376C63.6613 163.835 63.7733 164.187 63.9973 164.432C64.2319 164.677 64.5626 164.8 64.9893 164.8C65.4586 164.8 65.8586 164.667 66.1893 164.4L66.6693 165.504Z" fill="white"/>
<ellipse cx="34.754" cy="107.5" rx="22.3048" ry="21.5" fill="#3076F7"/>
<path fill-rule="evenodd" clip-rule="evenodd" d="M41.0633 93.006L32.8169 93.0002L32.8063 95.0783L30.6093 95.0839L30.6049 97.2968L28.8476 97.3L28.8466 100.241L27.2509 100.237L27.2485 103.565L25.2553 103.569L25.2441 105.331L22.4974 105.338L22.4932 106.608L20.7485 106.615V108.922L22.145 108.93L22.1496 112.625L24.1438 112.627L24.1466 113.691L25.5492 113.691L25.5404 115.281L28.1395 115.282L28.1445 114.084L26.7536 114.08L26.743 111.627L23.6533 111.615L23.6469 109.063L22.603 109.053V107.186L25.1429 107.185L25.1641 105.6L28.7564 105.588L28.7578 104.764L40.7482 104.766L40.7652 105.589L44.3555 105.581L44.3657 107.183L46.8991 107.192L46.8977 111.613L43.82 111.617L43.8084 113.563C43.7104 113.608 43.5811 113.603 43.4621 113.598C43.4276 113.596 43.394 113.595 43.3622 113.595L42.2581 113.588L42.2509 114.536L42.2585 120.868L43.6576 120.871L43.6652 115.273L45.5015 115.276L45.5207 113.118L48.7592 113.114L48.7572 106.615L47.0096 106.609L47.0058 105.361L44.2633 105.336L44.2599 103.569L42.2637 103.568L42.2517 100.237L40.6973 100.239L40.7138 98.0278L38.9075 98.0189L38.9079 100.574L41.2058 100.571L41.2088 103.564L34.6414 103.557C34.6443 103.489 34.6489 103.419 34.6534 103.349C34.6664 103.149 34.6796 102.944 34.658 102.752L29.3049 102.749L29.3031 100.576L30.5941 100.573L30.6069 98.362L32.0512 98.357L32.0568 95.9495L34.6508 95.942L34.6514 94.9275L41.0469 94.9257L41.0633 93.006ZM37.5015 96.7282L38.9077 96.7278L38.9005 97.9238L37.5047 97.9165L37.5015 96.7282ZM36.3015 111.608L37.6551 111.613V112.586C37.6415 112.634 37.6161 112.662 37.5857 112.697L37.5856 112.697L37.5855 112.697C37.5794 112.704 37.573 112.711 37.5665 112.718L36.2989 112.728L36.3015 111.608ZM34.6856 113.921L34.7124 112.084C34.7517 111.957 34.7335 111.763 34.7174 111.59C34.7103 111.514 34.7036 111.442 34.7024 111.382C34.6993 111.229 34.7009 111.078 34.7025 110.927C34.7052 110.67 34.708 110.414 34.687 110.15L34.6976 109.349L29.5981 109.346L29.6041 111.478L30.5356 111.476L30.5564 112.727L31.9503 112.721L31.9487 111.476L33.4556 111.477L33.4622 113.922L34.6856 113.921ZM31.2015 114.082L33.3171 114.085L33.2949 115.809L32.4161 115.819L32.4015 117.692L37.1032 117.689L37.0978 115.817L36.2065 115.808L36.2179 114.08L38.2901 114.091C38.3685 114.275 38.3419 114.71 38.3217 115.039V115.039V115.039C38.3148 115.152 38.3086 115.253 38.3077 115.327L39.9107 115.329L39.9099 119.863C39.9098 119.882 39.9099 119.899 39.91 119.915C39.9109 120.016 39.9111 120.043 39.8221 120.144L38.3612 120.149L38.349 121.886L36.5049 121.889L36.5051 123.082C36.505 123.116 36.5066 123.154 36.5082 123.195C36.5135 123.325 36.5197 123.477 36.4743 123.576L33.0524 123.575L33.0508 121.886L31.1593 121.881L31.1375 120.152L29.6024 120.143L29.6002 115.329L31.1911 115.326L31.2015 114.082Z" fill="white"/>
<path opacity="0.1" d="M65.3583 0H369.326V83C369.326 87.4183 365.744 91 361.326 91H73.3583C68.94 91 65.3583 87.4183 65.3583 83V0Z" fill="#D9D9D9"/>
<rect x="65.3583" y="98" width="137.979" height="26" rx="7" fill="#3076F7"/>
<path d="M83.9236 113.556H79.7236L78.8956 115.5H77.2876L81.0676 107.1H82.6036L86.3956 115.5H84.7636L83.9236 113.556ZM83.4076 112.332L81.8236 108.66L80.2516 112.332H83.4076ZM93.5373 106.596V115.5H92.0973V114.672C91.8493 114.976 91.5413 115.204 91.1733 115.356C90.8133 115.508 90.4133 115.584 89.9733 115.584C89.3573 115.584 88.8013 115.448 88.3053 115.176C87.8173 114.904 87.4333 114.52 87.1533 114.024C86.8733 113.52 86.7333 112.944 86.7333 112.296C86.7333 111.648 86.8733 111.076 87.1533 110.58C87.4333 110.084 87.8173 109.7 88.3053 109.428C88.8013 109.156 89.3573 109.02 89.9733 109.02C90.3973 109.02 90.7853 109.092 91.1373 109.236C91.4893 109.38 91.7893 109.596 92.0373 109.884V106.596H93.5373ZM90.1533 114.3C90.5133 114.3 90.8373 114.22 91.1253 114.06C91.4133 113.892 91.6413 113.656 91.8093 113.352C91.9773 113.048 92.0613 112.696 92.0613 112.296C92.0613 111.896 91.9773 111.544 91.8093 111.24C91.6413 110.936 91.4133 110.704 91.1253 110.544C90.8373 110.376 90.5133 110.292 90.1533 110.292C89.7933 110.292 89.4693 110.376 89.1813 110.544C88.8933 110.704 88.6653 110.936 88.4973 111.24C88.3293 111.544 88.2453 111.896 88.2453 112.296C88.2453 112.696 88.3293 113.048 88.4973 113.352C88.6653 113.656 88.8933 113.892 89.1813 114.06C89.4693 114.22 89.7933 114.3 90.1533 114.3ZM101.776 106.596V115.5H100.336V114.672C100.088 114.976 99.7796 115.204 99.4116 115.356C99.0516 115.508 98.6516 115.584 98.2116 115.584C97.5956 115.584 97.0396 115.448 96.5436 115.176C96.0556 114.904 95.6716 114.52 95.3916 114.024C95.1116 113.52 94.9716 112.944 94.9716 112.296C94.9716 111.648 95.1116 111.076 95.3916 110.58C95.6716 110.084 96.0556 109.7 96.5436 109.428C97.0396 109.156 97.5956 109.02 98.2116 109.02C98.6356 109.02 99.0236 109.092 99.3756 109.236C99.7276 109.38 100.028 109.596 100.276 109.884V106.596H101.776ZM98.3916 114.3C98.7516 114.3 99.0756 114.22 99.3636 114.06C99.6516 113.892 99.8796 113.656 100.048 113.352C100.216 113.048 100.3 112.696 100.3 112.296C100.3 111.896 100.216 111.544 100.048 111.24C99.8796 110.936 99.6516 110.704 99.3636 110.544C99.0756 110.376 98.7516 110.292 98.3916 110.292C98.0316 110.292 97.7076 110.376 97.4196 110.544C97.1316 110.704 96.9036 110.936 96.7356 111.24C96.5676 111.544 96.4836 111.896 96.4836 112.296C96.4836 112.696 96.5676 113.048 96.7356 113.352C96.9036 113.656 97.1316 113.892 97.4196 114.06C97.7076 114.22 98.0316 114.3 98.3916 114.3ZM110.906 115.152C110.73 115.296 110.514 115.404 110.258 115.476C110.01 115.548 109.746 115.584 109.466 115.584C108.762 115.584 108.218 115.4 107.834 115.032C107.45 114.664 107.258 114.128 107.258 113.424V110.34H106.202V109.14H107.258V107.676H108.758V109.14H110.474V110.34H108.758V113.388C108.758 113.7 108.834 113.94 108.986 114.108C109.138 114.268 109.358 114.348 109.646 114.348C109.982 114.348 110.262 114.26 110.486 114.084L110.906 115.152ZM114.809 115.584C114.161 115.584 113.577 115.444 113.057 115.164C112.537 114.884 112.129 114.496 111.833 114C111.545 113.496 111.401 112.928 111.401 112.296C111.401 111.664 111.545 111.1 111.833 110.604C112.129 110.108 112.537 109.72 113.057 109.44C113.577 109.16 114.161 109.02 114.809 109.02C115.465 109.02 116.053 109.16 116.573 109.44C117.093 109.72 117.497 110.108 117.785 110.604C118.081 111.1 118.229 111.664 118.229 112.296C118.229 112.928 118.081 113.496 117.785 114C117.497 114.496 117.093 114.884 116.573 115.164C116.053 115.444 115.465 115.584 114.809 115.584ZM114.809 114.3C115.361 114.3 115.817 114.116 116.177 113.748C116.537 113.38 116.717 112.896 116.717 112.296C116.717 111.696 116.537 111.212 116.177 110.844C115.817 110.476 115.361 110.292 114.809 110.292C114.257 110.292 113.801 110.476 113.441 110.844C113.089 111.212 112.913 111.696 112.913 112.296C112.913 112.896 113.089 113.38 113.441 113.748C113.801 114.116 114.257 114.3 114.809 114.3ZM128.98 109.092L125.98 116.016C125.7 116.712 125.36 117.2 124.96 117.48C124.56 117.768 124.076 117.912 123.508 117.912C123.188 117.912 122.872 117.86 122.56 117.756C122.248 117.652 121.992 117.508 121.792 117.324L122.392 116.22C122.536 116.356 122.704 116.464 122.896 116.544C123.096 116.624 123.296 116.664 123.496 116.664C123.76 116.664 123.976 116.596 124.144 116.46C124.32 116.324 124.48 116.096 124.624 115.776L124.732 115.524L121.936 109.092H123.496L125.512 113.832L127.54 109.092H128.98ZM132.622 115.584C131.974 115.584 131.39 115.444 130.87 115.164C130.35 114.884 129.942 114.496 129.646 114C129.358 113.496 129.214 112.928 129.214 112.296C129.214 111.664 129.358 111.1 129.646 110.604C129.942 110.108 130.35 109.72 130.87 109.44C131.39 109.16 131.974 109.02 132.622 109.02C133.278 109.02 133.866 109.16 134.386 109.44C134.906 109.72 135.31 110.108 135.598 110.604C135.894 111.1 136.042 111.664 136.042 112.296C136.042 112.928 135.894 113.496 135.598 114C135.31 114.496 134.906 114.884 134.386 115.164C133.866 115.444 133.278 115.584 132.622 115.584ZM132.622 114.3C133.174 114.3 133.63 114.116 133.99 113.748C134.35 113.38 134.53 112.896 134.53 112.296C134.53 111.696 134.35 111.212 133.99 110.844C133.63 110.476 133.174 110.292 132.622 110.292C132.07 110.292 131.614 110.476 131.254 110.844C130.902 111.212 130.726 111.696 130.726 112.296C130.726 112.896 130.902 113.38 131.254 113.748C131.614 114.116 132.07 114.3 132.622 114.3ZM143.68 109.092V115.5H142.252V114.684C142.012 114.972 141.712 115.196 141.352 115.356C140.992 115.508 140.604 115.584 140.188 115.584C139.332 115.584 138.656 115.348 138.16 114.876C137.672 114.396 137.428 113.688 137.428 112.752V109.092H138.928V112.548C138.928 113.124 139.056 113.556 139.312 113.844C139.576 114.124 139.948 114.264 140.428 114.264C140.964 114.264 141.388 114.1 141.7 113.772C142.02 113.436 142.18 112.956 142.18 112.332V109.092H143.68ZM147.072 110.028C147.504 109.356 148.264 109.02 149.352 109.02V110.448C149.224 110.424 149.108 110.412 149.004 110.412C148.42 110.412 147.964 110.584 147.636 110.928C147.308 111.264 147.144 111.752 147.144 112.392V115.5H145.644V109.092H147.072V110.028ZM160.36 109.092V114.528C160.36 116.784 159.208 117.912 156.904 117.912C156.288 117.912 155.704 117.832 155.152 117.672C154.6 117.52 154.144 117.296 153.784 117L154.456 115.872C154.736 116.104 155.088 116.288 155.512 116.424C155.944 116.568 156.38 116.64 156.82 116.64C157.524 116.64 158.04 116.48 158.368 116.16C158.696 115.84 158.86 115.352 158.86 114.696V114.36C158.604 114.64 158.292 114.852 157.924 114.996C157.556 115.14 157.152 115.212 156.712 115.212C156.104 115.212 155.552 115.084 155.056 114.828C154.568 114.564 154.18 114.196 153.892 113.724C153.612 113.252 153.472 112.712 153.472 112.104C153.472 111.496 153.612 110.96 153.892 110.496C154.18 110.024 154.568 109.66 155.056 109.404C155.552 109.148 156.104 109.02 156.712 109.02C157.176 109.02 157.596 109.096 157.972 109.248C158.356 109.4 158.676 109.632 158.932 109.944V109.092H160.36ZM156.94 113.94C157.508 113.94 157.972 113.772 158.332 113.436C158.7 113.092 158.884 112.648 158.884 112.104C158.884 111.568 158.7 111.132 158.332 110.796C157.972 110.46 157.508 110.292 156.94 110.292C156.364 110.292 155.892 110.46 155.524 110.796C155.164 111.132 154.984 111.568 154.984 112.104C154.984 112.648 155.164 113.092 155.524 113.436C155.892 113.772 156.364 113.94 156.94 113.94ZM163.76 110.028C164.192 109.356 164.952 109.02 166.04 109.02V110.448C165.912 110.424 165.796 110.412 165.692 110.412C165.108 110.412 164.652 110.584 164.324 110.928C163.996 111.264 163.832 111.752 163.832 112.392V115.5H162.332V109.092H163.76V110.028ZM170.133 115.584C169.485 115.584 168.901 115.444 168.381 115.164C167.861 114.884 167.453 114.496 167.157 114C166.869 113.496 166.725 112.928 166.725 112.296C166.725 111.664 166.869 111.1 167.157 110.604C167.453 110.108 167.861 109.72 168.381 109.44C168.901 109.16 169.485 109.02 170.133 109.02C170.789 109.02 171.377 109.16 171.897 109.44C172.417 109.72 172.821 110.108 173.109 110.604C173.405 111.1 173.553 111.664 173.553 112.296C173.553 112.928 173.405 113.496 173.109 114C172.821 114.496 172.417 114.884 171.897 115.164C171.377 115.444 170.789 115.584 170.133 115.584ZM170.133 114.3C170.685 114.3 171.141 114.116 171.501 113.748C171.861 113.38 172.041 112.896 172.041 112.296C172.041 111.696 171.861 111.212 171.501 110.844C171.141 110.476 170.685 110.292 170.133 110.292C169.581 110.292 169.125 110.476 168.765 110.844C168.413 111.212 168.237 111.696 168.237 112.296C168.237 112.896 168.413 113.38 168.765 113.748C169.125 114.116 169.581 114.3 170.133 114.3ZM181.192 109.092V115.5H179.764V114.684C179.524 114.972 179.224 115.196 178.864 115.356C178.504 115.508 178.116 115.584 177.7 115.584C176.844 115.584 176.168 115.348 175.672 114.876C175.184 114.396 174.94 113.688 174.94 112.752V109.092H176.44V112.548C176.44 113.124 176.568 113.556 176.824 113.844C177.088 114.124 177.46 114.264 177.94 114.264C178.476 114.264 178.9 114.1 179.212 113.772C179.532 113.436 179.692 112.956 179.692 112.332V109.092H181.192ZM186.708 109.02C187.332 109.02 187.888 109.156 188.376 109.428C188.872 109.7 189.26 110.084 189.54 110.58C189.82 111.076 189.96 111.648 189.96 112.296C189.96 112.944 189.82 113.52 189.54 114.024C189.26 114.52 188.872 114.904 188.376 115.176C187.888 115.448 187.332 115.584 186.708 115.584C185.844 115.584 185.16 115.296 184.656 114.72V117.828H183.156V109.092H184.584V109.932C184.832 109.628 185.136 109.4 185.496 109.248C185.864 109.096 186.268 109.02 186.708 109.02ZM186.54 114.3C187.092 114.3 187.544 114.116 187.896 113.748C188.256 113.38 188.436 112.896 188.436 112.296C188.436 111.696 188.256 111.212 187.896 110.844C187.544 110.476 187.092 110.292 186.54 110.292C186.18 110.292 185.856 110.376 185.568 110.544C185.28 110.704 185.052 110.936 184.884 111.24C184.716 111.544 184.632 111.896 184.632 112.296C184.632 112.696 184.716 113.048 184.884 113.352C185.052 113.656 185.28 113.892 185.568 114.06C185.856 114.22 186.18 114.3 186.54 114.3Z" fill="white"/>
<rect opacity="0.1" x="81.9572" y="59" width="248.984" height="18" rx="9" fill="#D9D9D9"/>
<rect opacity="0.1" x="81.9572" y="36" width="149.39" height="18" rx="9" fill="#D9D9D9"/>
<rect opacity="0.2" x="81.9572" y="13" width="201.262" height="18" rx="9" fill="#D9D9D9"/>
<defs>
<filter id="filter0_b_304_6432" x="-94" y="-94" width="576" height="381" filterUnits="userSpaceOnUse" color-interpolation-filters="sRGB">
<feFlood flood-opacity="0" result="BackgroundImageFix"/>
<feGaussianBlur in="BackgroundImageFix" stdDeviation="47"/>
<feComposite in2="SourceAlpha" operator="in" result="effect1_backgroundBlur_304_6432"/>
<feBlend mode="normal" in="SourceGraphic" in2="effect1_backgroundBlur_304_6432" result="shape"/>
</filter>
</defs>
</svg>
